<svg xmlns="http://www.w3.org/2000/svg" xmlns:xlink="http://www.w3.org/1999/xlink" version="1.1" class="marks" width="704" height="500" viewBox="0 0 704 500"><rect width="704" height="500" fill="#FFFFFF"/><g fill="none" stroke-miterlimit="10" transform="translate(183,19)"><g class="mark-group role-frame root" role="graphics-object" aria-roledescription="group mark container"><g transform="translate(0,0)"><path class="background" aria-hidden="true" d="M0,0h520v404h-520Z" stroke-width="0"/><g><g class="mark-group role-axis" aria-hidden="true"><g transform="translate(0.5,404.5)"><path class="background" aria-hidden="true" d="M0,0h0v0h0Z" pointer-events="none"/><g><g class="mark-rule role-axis-grid" pointer-events="none"><line transform="translate(0,0)" x2="0" y2="-404" stroke="#e6eaf1" stroke-width="1" opacity="1"/><line transform="translate(37,0)" x2="0" y2="-404" stroke="#e6eaf1" stroke-width="1" opacity="1"/><line transform="translate(74,0)" x2="0" y2="-404" stroke="#e6eaf1" stroke-width="1" opacity="1"/><line transform="translate(111,0)" x2="0" y2="-404" stroke="#e6eaf1" stroke-width="1" opacity="1"/><line transform="translate(149,0)" x2="0" y2="-404" stroke="#e6eaf1" stroke-width="1" opacity="1"/><line transform="translate(186,0)" x2="0" y2="-404" stroke="#e6eaf1" stroke-width="1" opacity="1"/><line transform="translate(223,0)" x2="0" y2="-404" stroke="#e6eaf1" stroke-width="1" opacity="1"/><line transform="translate(260,0)" x2="0" y2="-404" stroke="#e6eaf1" stroke-width="1" opacity="1"/><line transform="translate(297,0)" x2="0" y2="-404" stroke="#e6eaf1" stroke-width="1" opacity="1"/><line transform="translate(334,0)" x2="0" y2="-404" stroke="#e6eaf1" stroke-width="1" opacity="1"/><line transform="translate(371,0)" x2="0" y2="-404" stroke="#e6eaf1" stroke-width="1" opacity="1"/><line transform="translate(409,0)" x2="0" y2="-404" stroke="#e6eaf1" stroke-width="1" opacity="1"/><line transform="translate(446,0)" x2="0" y2="-404" stroke="#e6eaf1" stroke-width="1" opacity="1"/><line transform="translate(483,0)" x2="0" y2="-404" stroke="#e6eaf1" stroke-width="1" opacity="1"/><line transform="translate(520,0)" x2="0" y2="-404" stroke="#e6eaf1" stroke-width="1" opacity="1"/></g></g><path class="foreground" aria-hidden="true" d="" pointer-events="none" display="none"/></g></g><g class="mark-group role-axis" role="graphics-symbol" aria-roledescription="axis" aria-label="X-axis titled 'GHG Emissions (kg CO2eq)' for a linear scale with values from 0 to 140"><g transform="translate(0.5,404.5)"><path class="background" aria-hidden="true" d="M0,0h0v0h0Z" pointer-events="none"/><g><g class="mark-text role-axis-label" pointer-events="none"><text text-anchor="start" transform="translate(-1,25)" font-family="&quot;Source Sans Pro&quot;, sans-serif" font-size="12px" font-style="normal" font-weight="400" fill="#808495" opacity="1">0</text><text text-anchor="middle" transform="translate(37.14285714285714,25)" font-family="&quot;Source Sans Pro&quot;, sans-serif" font-size="12px" font-style="normal" font-weight="400" fill="#808495" opacity="1">10</text><text text-anchor="middle" transform="translate(74.28571428571428,25)" font-family="&quot;Source Sans Pro&quot;, sans-serif" font-size="12px" font-style="normal" font-weight="400" fill="#808495" opacity="1">20</text><text text-anchor="middle" transform="translate(111.42857142857142,25)" font-family="&quot;Source Sans Pro&quot;, sans-serif" font-size="12px" font-style="normal" font-weight="400" fill="#808495" opacity="1">30</text><text text-anchor="middle" transform="translate(148.57142857142856,25)" font-family="&quot;Source Sans Pro&quot;, sans-serif" font-size="12px" font-style="normal" font-weight="400" fill="#808495" opacity="1">40</text><text text-anchor="middle" transform="translate(185.71428571428572,25)" font-family="&quot;Source Sans Pro&quot;, sans-serif" font-size="12px" font-style="normal" font-weight="400" fill="#808495" opacity="1">50</text><text text-anchor="middle" transform="translate(222.85714285714283,25)" font-family="&quot;Source Sans Pro&quot;, sans-serif" font-size="12px" font-style="normal" font-weight="400" fill="#808495" opacity="1">60</text><text text-anchor="middle" transform="translate(260,25)" font-family="&quot;Source Sans Pro&quot;, sans-serif" font-size="12px" font-style="normal" font-weight="400" fill="#808495" opacity="1">70</text><text text-anchor="middle" transform="translate(297.1428571428571,25)" font-family="&quot;Source Sans Pro&quot;, sans-serif" font-size="12px" font-style="normal" font-weight="400" fill="#808495" opacity="1">80</text><text text-anchor="middle" transform="translate(334.28571428571433,25)" font-family="&quot;Source Sans Pro&quot;, sans-serif" font-size="12px" font-style="normal" font-weight="400" fill="#808495" opacity="1">90</text><text text-anchor="middle" transform="translate(371.42857142857144,25)" font-family="&quot;Source Sans Pro&quot;, sans-serif" font-size="12px" font-style="normal" font-weight="400" fill="#808495" opacity="1">100</text><text text-anchor="middle" transform="translate(408.57142857142856,25)" font-family="&quot;Source Sans Pro&quot;, sans-serif" font-size="12px" font-style="normal" font-weight="400" fill="#808495" opacity="1">110</text><text text-anchor="middle" transform="translate(445.71428571428567,25)" font-family="&quot;Source Sans Pro&quot;, sans-serif" font-size="12px" font-style="normal" font-weight="400" fill="#808495" opacity="1">120</text><text text-anchor="middle" transform="translate(482.8571428571429,25)" font-family="&quot;Source Sans Pro&quot;, sans-serif" font-size="12px" font-style="normal" font-weight="400" fill="#808495" opacity="1">130</text><text text-anchor="end" transform="translate(521,25)" font-family="&quot;Source Sans Pro&quot;, sans-serif" font-size="12px" font-style="normal" font-weight="400" fill="#808495" opacity="1">140</text></g><g class="mark-text role-axis-title" pointer-events="none"><text text-anchor="middle" transform="translate(260,54)" font-family="&quot;Source Sans Pro&quot;, sans-serif" font-size="14px" font-style="normal" font-weight="400" fill="#808495" opacity="1">GHG Emissions (kg CO2eq)</text></g></g><path class="foreground" aria-hidden="true" d="" pointer-events="none" display="none"/></g></g><g class="mark-group role-axis" role="graphics-symbol" aria-roledescription="axis" aria-label="Y-axis titled 'Per 100g protein...' for a discrete scale with 16 values: Bovine Meat (beef herd), Bovine Meat (dairy herd), Cheese, Crustaceans (farmed), Fish (farmed), ending with Tomatoes"><g transform="translate(0.5,0.5)"><path class="background" aria-hidden="true" d="M0,0h0v0h0Z" pointer-events="none"/><g><g class="mark-text role-axis-label" pointer-events="none"><text text-anchor="end" transform="translate(-16,16.12499999999999)" font-family="&quot;Source Sans Pro&quot;, sans-serif" font-size="12px" font-style="normal" font-weight="400" fill="#808495" opacity="1">Bovine Meat (bee…</text><text text-anchor="end" transform="translate(-16,41.374999999999986)" font-family="&quot;Source Sans Pro&quot;, sans-serif" font-size="12px" font-style="normal" font-weight="400" fill="#808495" opacity="1">Bovine Meat (dair…</text><text text-anchor="end" transform="translate(-16,66.62499999999999)" font-family="&quot;Source Sans Pro&quot;, sans-serif" font-size="12px" font-style="normal" font-weight="400" fill="#808495" opacity="1">Cheese</text><text text-anchor="end" transform="translate(-16,91.87499999999999)" font-family="&quot;Source Sans Pro&quot;, sans-serif" font-size="12px" font-style="normal" font-weight="400" fill="#808495" opacity="1">Crustaceans (far…</text><text text-anchor="end" transform="translate(-16,117.12499999999999)" font-family="&quot;Source Sans Pro&quot;, sans-serif" font-size="12px" font-style="normal" font-weight="400" fill="#808495" opacity="1">Fish (farmed)</text><text text-anchor="end" transform="translate(-16,142.375)" font-family="&quot;Source Sans Pro&quot;, sans-serif" font-size="12px" font-style="normal" font-weight="400" fill="#808495" opacity="1">Lamb &amp; Mutton</text><text text-anchor="end" transform="translate(-16,167.625)" font-family="&quot;Source Sans Pro&quot;, sans-serif" font-size="12px" font-style="normal" font-weight="400" fill="#808495" opacity="1">Milk</text><text text-anchor="end" transform="translate(-16,192.875)" font-family="&quot;Source Sans Pro&quot;, sans-serif" font-size="12px" font-style="normal" font-weight="400" fill="#808495" opacity="1">Olive Oil</text><text text-anchor="end" transform="translate(-16,218.125)" font-family="&quot;Source Sans Pro&quot;, sans-serif" font-size="12px" font-style="normal" font-weight="400" fill="#808495" opacity="1">Peas</text><text text-anchor="end" transform="translate(-16,243.375)" font-family="&quot;Source Sans Pro&quot;, sans-serif" font-size="12px" font-style="normal" font-weight="400" fill="#808495" opacity="1">Pig Meat</text><text text-anchor="end" transform="translate(-16,268.625)" font-family="&quot;Source Sans Pro&quot;, sans-serif" font-size="12px" font-style="normal" font-weight="400" fill="#808495" opacity="1">Potatoes</text><text text-anchor="end" transform="translate(-16,293.875)" font-family="&quot;Source Sans Pro&quot;, sans-serif" font-size="12px" font-style="normal" font-weight="400" fill="#808495" opacity="1">Poultry Meat</text><text text-anchor="end" transform="translate(-16,319.125)" font-family="&quot;Source Sans Pro&quot;, sans-serif" font-size="12px" font-style="normal" font-weight="400" fill="#808495" opacity="1">Rice</text><text text-anchor="end" transform="translate(-16,344.375)" font-family="&quot;Source Sans Pro&quot;, sans-serif" font-size="12px" font-style="normal" font-weight="400" fill="#808495" opacity="1">Soymilk</text><text text-anchor="end" transform="translate(-16,369.625)" font-family="&quot;Source Sans Pro&quot;, sans-serif" font-size="12px" font-style="normal" font-weight="400" fill="#808495" opacity="1">Tofu</text><text text-anchor="end" transform="translate(-16,394.875)" font-family="&quot;Source Sans Pro&quot;, sans-serif" font-size="12px" font-style="normal" font-weight="400" fill="#808495" opacity="1">Tomatoes</text></g><g class="mark-text role-axis-title" pointer-events="none"><text text-anchor="middle" transform="translate(-129.96666717529297,-8)" font-family="&quot;Source Sans Pro&quot;, sans-serif" font-size="14px" font-style="normal" font-weight="400" fill="#808495" opacity="1">Per 100g protein...</text></g></g><path class="foreground" aria-hidden="true" d="" pointer-events="none" display="none"/></g></g><g class="mark-rect role-mark layer_0_marks" role="graphics-object" aria-roledescription="rect mark container"><path aria-label="GHG Emissions (kg CO2eq): 0.311991318502; Product: Rice; 95th pctl: 2.78350515464; Product Type: Plants" role="graphics-symbol" aria-roledescription="bar" d="M5.7487791644058595,305.625L5.7487791644058595,305.625C8.282043886164809,305.625,10.338733431516935,307.6816895453521,10.338733431516935,310.21495426711107L10.338733431516935,321.03504573288893C10.338733431516935,323.5683104546479,8.282043886164809,325.625,5.7487791644058595,325.625L5.7487791644058595,325.625C3.21551444264691,325.625,1.1588248972947832,323.5683104546479,1.1588248972947832,321.03504573288893L1.1588248972947832,310.21495426711107C1.1588248972947832,307.6816895453521,3.21551444264691,305.625,5.7487791644058595,305.625Z" fill="#A1D6C6" opacity="1"/><path aria-label="GHG Emissions (kg CO2eq): 0.122950819672; Product: Potatoes; 95th pctl: 0.956284153005; Product Type: Plants" role="graphics-symbol" aria-roledescription="bar" d="M2.0042935206869634,255.125L2.0042935206869634,255.125C2.8584477252610108,255.125,3.551912568306011,255.818464843045,3.551912568306011,256.67261904761904L3.551912568306011,273.57738095238096C3.551912568306011,274.431535156955,2.8584477252610108,275.125,2.0042935206869634,275.125L2.0042935206869634,275.125C1.1501393161129156,275.125,0.45667447306791553,274.431535156955,0.45667447306791553,273.57738095238096L0.45667447306791553,256.67261904761904C0.45667447306791553,255.818464843045,1.1501393161129156,255.125,2.0042935206869634,255.125Z" fill="#A1D6C6" opacity="1"/><path aria-label="GHG Emissions (kg CO2eq): 0.229522952295; Product: Peas; 95th pctl: 0.841584158416; Product Type: Plants" role="graphics-symbol" aria-roledescription="bar" d="M1.9891989198919893,204.625L1.9891989198919893,204.625C2.6165525030894896,204.625,3.125884016973126,205.13433151388364,3.125884016973126,205.76168509708114L3.125884016973126,223.48831490291886C3.125884016973126,224.11566848611636,2.6165525030894896,224.625,1.9891989198919893,224.625L1.9891989198919893,224.625C1.361845336694489,224.625,0.8525138228108525,224.11566848611636,0.8525138228108525,223.48831490291886L0.8525138228108525,205.76168509708114C0.8525138228108525,205.13433151388364,1.361845336694489,204.625,1.9891989198919893,204.625Z" fill="#A1D6C6" opacity="1"/><path aria-label="GHG Emissions (kg CO2eq): 0.51; Product: Soymilk; 95th pctl: 1.74; Product Type: Plants" role="graphics-symbol" aria-roledescription="bar" d="M4.178571428571429,330.875L4.178571428571429,330.875C5.439303034522723,330.875,6.462857142857143,331.8985541083344,6.462857142857143,333.1592857142857L6.462857142857143,348.5907142857143C6.462857142857143,349.8514458916656,5.439303034522723,350.875,4.178571428571429,350.875L4.178571428571429,350.875C2.9178398226201345,350.875,1.8942857142857144,349.8514458916656,1.8942857142857144,348.5907142857143L1.8942857142857144,333.1592857142857C1.8942857142857144,331.8985541083344,2.9178398226201345,330.875,4.178571428571429,330.875Z" fill="#A1D6C6" opacity="1"/><path aria-label="GHG Emissions (kg CO2eq): 0.88125; Product: Tofu; 95th pctl: 4.54375; Product Type: Plants" role="graphics-symbol" aria-roledescription="bar" d="M10.075,356.125L10.075,356.125C13.829007729102939,356.125,16.876785714285713,359.1727779851828,16.876785714285713,362.9267857142857L16.876785714285713,369.3232142857143C16.876785714285713,373.0772220148172,13.829007729102939,376.125,10.075,376.125L10.075,376.125C6.32099227089706,376.125,3.2732142857142854,373.0772220148172,3.2732142857142854,369.3232142857143L3.2732142857142854,362.9267857142857C3.2732142857142854,359.1727779851828,6.32099227089706,356.125,10.075,356.125Z" fill="#A1D6C6" opacity="1"/><path aria-label="GHG Emissions (kg CO2eq): 2.13; Product: Olive Oil; 95th pctl: 10.79; Product Type: Plants" role="graphics-symbol" aria-roledescription="bar" d="M17.911428571428573,179.375L30.077142857142853,179.375C35.59629310208285,179.375,40.07714285714285,183.85584975506,40.07714285714285,189.375L40.07714285714285,189.375C40.07714285714285,194.89415024494,35.59629310208285,199.375,30.077142857142853,199.375L17.911428571428573,199.375C12.392278326488572,199.375,7.911428571428571,194.89415024494,7.911428571428571,189.375L7.911428571428571,189.375C7.911428571428571,183.85584975506,12.392278326488572,179.375,17.911428571428573,179.375Z" fill="#A1D6C6" opacity="1"/><path aria-label="GHG Emissions (kg CO2eq): 0.37; Product: Tomatoes; 95th pctl: 12.62; Product Type: Plants" role="graphics-symbol" aria-roledescription="bar" d="M11.374285714285714,381.375L36.87428571428571,381.375C42.39343595922571,381.375,46.87428571428571,385.85584975506,46.87428571428571,391.375L46.87428571428571,391.375C46.87428571428571,396.89415024494,42.39343595922571,401.375,36.87428571428571,401.375L11.374285714285714,401.375C5.855135469345715,401.375,1.3742857142857143,396.89415024494,1.3742857142857143,391.375L1.3742857142857143,391.375C1.3742857142857143,385.85584975506,5.855135469345715,381.375,11.374285714285714,381.375Z" fill="#A1D6C6" opacity="1"/><path aria-label="GHG Emissions (kg CO2eq): 18.8415245737; Product: Bovine Meat (beef herd); 95th pctl: 135; Product Type: Animal Products" role="graphics-symbol" aria-roledescription="bar" d="M79.98280555953575,2.6249999999999893L491.42857142857144,2.6249999999999893C496.94772167351147,2.6249999999999893,501.42857142857144,7.10584975505999,501.42857142857144,12.62499999999999L501.42857142857144,12.62499999999999C501.42857142857144,18.14415024493999,496.94772167351147,22.62499999999999,491.42857142857144,22.62499999999999L79.98280555953575,22.62499999999999C74.46365531459575,22.62499999999999,69.98280555953575,18.14415024493999,69.98280555953575,12.62499999999999L69.98280555953575,12.62499999999999C69.98280555953575,7.10584975505999,74.46365531459575,2.6249999999999893,79.98280555953575,2.6249999999999893Z" fill="#982D4D" opacity="1"/><path aria-label="GHG Emissions (kg CO2eq): 7.56332320162; Product: Bovine Meat (dairy herd); 95th pctl: 28.7132725431; Product Type: Animal Products" role="graphics-symbol" aria-roledescription="bar" d="M38.092343320306846,27.874999999999986L96.64929801707916,27.874999999999986C102.16844826201915,27.874999999999986,106.64929801707916,32.355849755059985,106.64929801707916,37.874999999999986L106.64929801707916,37.874999999999986C106.64929801707916,43.394150244939986,102.16844826201915,47.874999999999986,96.64929801707916,47.874999999999986L38.092343320306846,47.874999999999986C32.573193075366845,47.874999999999986,28.092343320306846,43.394150244939986,28.092343320306846,37.874999999999986L28.092343320306846,37.874999999999986C28.092343320306846,32.355849755059985,32.573193075366845,27.874999999999986,38.092343320306846,27.874999999999986Z" fill="#982D4D" opacity="1"/><path aria-label="GHG Emissions (kg CO2eq): 11.844077961; Product: Lamb &amp; Mutton; 95th pctl: 30.0649675162; Product Type: Animal Products" role="graphics-symbol" aria-roledescription="bar" d="M53.99228956950096,128.875L101.66987934604128,128.875C107.18902959098128,128.875,111.66987934604128,133.35584975506,111.66987934604128,138.875L111.66987934604128,138.875C111.66987934604128,144.39415024494,107.18902959098128,148.875,101.66987934604128,148.875L53.99228956950096,148.875C48.47313932456096,148.875,43.99228956950096,144.39415024494,43.99228956950096,138.875L43.99228956950096,138.875C43.99228956950096,133.35584975506,48.47313932456096,128.875,53.99228956950096,128.875Z" fill="#982D4D" opacity="1"/><path aria-label="GHG Emissions (kg CO2eq): 4.27070457355; Product: Pig Meat; 95th pctl: 14.7033374536; Product Type: Animal Products" role="graphics-symbol" aria-roledescription="bar" d="M25.862616987462474,229.875L44.6123962564012,229.875C50.1315465013412,229.875,54.6123962564012,234.35584975506,54.6123962564012,239.875L54.6123962564012,239.875C54.6123962564012,245.39415024494,50.1315465013412,249.875,44.6123962564012,249.875L25.862616987462474,249.875C20.343466742522473,249.875,15.862616987462474,245.39415024494,15.862616987462474,239.875L15.862616987462474,239.875C15.862616987462474,234.35584975506,20.343466742522473,229.875,25.862616987462474,229.875Z" fill="#982D4D" opacity="1"/><path aria-label="GHG Emissions (kg CO2eq): 2.28060046189; Product: Poultry Meat; 95th pctl: 12.0207852194; Product Type: Animal Products" role="graphics-symbol" aria-roledescription="bar" d="M18.47080171560541,280.375L34.64863081491258,280.375C40.16778105985258,280.375,44.64863081491258,284.85584975506,44.64863081491258,290.375L44.64863081491258,290.375C44.64863081491258,295.89415024494,40.16778105985258,300.375,34.64863081491258,300.375L18.47080171560541,300.375C12.951651470665414,300.375,8.470801715605413,295.89415024494,8.470801715605413,290.375L8.470801715605413,290.375C8.470801715605413,284.85584975506,12.951651470665414,280.375,18.47080171560541,280.375Z" fill="#982D4D" opacity="1"/><path aria-label="GHG Emissions (kg CO2eq): 1.51; Product: Milk; 95th pctl: 7; Product Type: Animal Products" role="graphics-symbol" aria-roledescription="bar" d="M15.608571428571429,154.125L16,154.125C21.51915024494,154.125,26,158.60584975506,26,164.125L26,164.125C26,169.64415024494,21.51915024494,174.125,16,174.125L15.608571428571429,174.125C10.08942118363143,174.125,5.6085714285714285,169.64415024494,5.6085714285714285,164.125L5.6085714285714285,164.125C5.6085714285714285,158.60584975506,10.08942118363143,154.125,15.608571428571429,154.125Z" fill="#982D4D" opacity="1"/><path aria-label="GHG Emissions (kg CO2eq): 4.6240942029; Product: Cheese; 95th pctl: 26.6259057971; Product Type: Animal Products" role="graphics-symbol" aria-roledescription="bar" d="M27.175207039337472,53.124999999999986L88.89622153209109,53.124999999999986C94.41537177703108,53.124999999999986,98.89622153209109,57.605849755059985,98.89622153209109,63.124999999999986L98.89622153209109,63.124999999999986C98.89622153209109,68.64415024493998,94.41537177703108,73.12499999999999,88.89622153209109,73.12499999999999L27.175207039337472,73.12499999999999C21.656056794397472,73.12499999999999,17.175207039337472,68.64415024493998,17.175207039337472,63.124999999999986L17.175207039337472,63.124999999999986C17.175207039337472,57.605849755059985,21.656056794397472,53.124999999999986,27.175207039337472,53.124999999999986Z" fill="#982D4D" opacity="1"/><path aria-label="GHG Emissions (kg CO2eq): 2.37228677922; Product: Fish (farmed); 95th pctl: 14.3126507345; Product Type: Animal Products" role="graphics-symbol" aria-roledescription="bar" d="M18.811350894227456,103.62499999999999L43.161274156669904,103.62499999999999C48.680424401609905,103.62499999999999,53.161274156669904,108.10584975505999,53.161274156669904,113.62499999999999L53.161274156669904,113.62499999999999C53.161274156669904,119.14415024493998,48.680424401609905,123.62499999999999,43.161274156669904,123.62499999999999L18.811350894227456,123.62499999999999C13.292200649287455,123.62499999999999,8.811350894227456,119.14415024493998,8.811350894227456,113.62499999999999L8.811350894227456,113.62499999999999C8.811350894227456,108.10584975505999,13.292200649287455,103.62499999999999,18.811350894227456,103.62499999999999Z" fill="#982D4D" opacity="1"/><path aria-label="GHG Emissions (kg CO2eq): 5.01692620176; Product: Crustaceans (farmed); 95th pctl: 77.9214624238; Product Type: Animal Products" role="graphics-symbol" aria-roledescription="bar" d="M28.63429732082406,78.37499999999999L279.4225747170907,78.37499999999999C284.9417249620307,78.37499999999999,289.4225747170907,82.85584975505999,289.4225747170907,88.37499999999999L289.4225747170907,88.37499999999999C289.4225747170907,93.89415024493998,284.9417249620307,98.37499999999999,279.4225747170907,98.37499999999999L28.63429732082406,98.37499999999999C23.11514707588406,98.37499999999999,18.63429732082406,93.89415024493998,18.63429732082406,88.37499999999999L18.63429732082406,88.37499999999999C18.63429732082406,82.85584975505999,23.11514707588406,78.37499999999999,28.63429732082406,78.37499999999999Z" fill="#982D4D" opacity="1"/></g><g class="mark-symbol role-mark layer_1_marks" role="graphics-object" aria-roledescription="symbol mark container"><path aria-label="Median: 1.01; Product: Rice; Product Type: Plants" role="graphics-symbol" aria-roledescription="point" transform="translate(3.751428571428572,315.625)" d="M7.071,0A7.071,7.071,0,1,1,-7.071,0A7.071,7.071,0,1,1,7.071,0" stroke="black" stroke-width="2" opacity="1"/><path aria-label="Median: 0.64; Product: Potatoes; Product Type: Plants" role="graphics-symbol" aria-roledescription="point" transform="translate(2.3771428571428572,265.125)" d="M7.071,0A7.071,7.071,0,1,1,-7.071,0A7.071,7.071,0,1,1,7.071,0" stroke="black" stroke-width="2" opacity="1"/><path aria-label="Median: 0.36; Product: Peas; Product Type: Plants" role="graphics-symbol" aria-roledescription="point" transform="translate(1.337142857142857,214.625)" d="M7.071,0A7.071,7.071,0,1,1,-7.071,0A7.071,7.071,0,1,1,7.071,0" stroke="black" stroke-width="2" opacity="1"/><path aria-label="Median: 0.91; Product: Soymilk; Product Type: Plants" role="graphics-symbol" aria-roledescription="point" transform="translate(3.3800000000000003,340.875)" d="M7.071,0A7.071,7.071,0,1,1,-7.071,0A7.071,7.071,0,1,1,7.071,0" stroke="black" stroke-width="2" opacity="1"/><path aria-label="Median: 1.61; Product: Tofu; Product Type: Plants" role="graphics-symbol" aria-roledescription="point" transform="translate(5.98,366.125)" d="M7.071,0A7.071,7.071,0,1,1,-7.071,0A7.071,7.071,0,1,1,7.071,0" stroke="black" stroke-width="2" opacity="1"/><path aria-label="Median: 5.09; Product: Olive Oil; Product Type: Plants" role="graphics-symbol" aria-roledescription="point" transform="translate(18.905714285714286,189.375)" d="M7.071,0A7.071,7.071,0,1,1,-7.071,0A7.071,7.071,0,1,1,7.071,0" stroke="black" stroke-width="2" opacity="1"/><path aria-label="Median: 0.65; Product: Tomatoes; Product Type: Plants" role="graphics-symbol" aria-roledescription="point" transform="translate(2.4142857142857146,391.375)" d="M7.071,0A7.071,7.071,0,1,1,-7.071,0A7.071,7.071,0,1,1,7.071,0" stroke="black" stroke-width="2" opacity="1"/><path aria-label="Median: 30.27; Product: Bovine Meat (beef herd); Product Type: Animal Products" role="graphics-symbol" aria-roledescription="point" transform="translate(112.43142857142857,12.62499999999999)" d="M7.071,0A7.071,7.071,0,1,1,-7.071,0A7.071,7.071,0,1,1,7.071,0" stroke="black" stroke-width="2" opacity="1"/><path aria-label="Median: 17.29; Product: Bovine Meat (dairy herd); Product Type: Animal Products" role="graphics-symbol" aria-roledescription="point" transform="translate(64.22,37.874999999999986)" d="M7.071,0A7.071,7.071,0,1,1,-7.071,0A7.071,7.071,0,1,1,7.071,0" stroke="black" stroke-width="2" opacity="1"/><path aria-label="Median: 20.29; Product: Lamb &amp; Mutton; Product Type: Animal Products" role="graphics-symbol" aria-roledescription="point" transform="translate(75.36285714285715,138.875)" d="M7.071,0A7.071,7.071,0,1,1,-7.071,0A7.071,7.071,0,1,1,7.071,0" stroke="black" stroke-width="2" opacity="1"/><path aria-label="Median: 6.53; Product: Pig Meat; Product Type: Animal Products" role="graphics-symbol" aria-roledescription="point" transform="translate(24.254285714285714,239.875)" d="M7.071,0A7.071,7.071,0,1,1,-7.071,0A7.071,7.071,0,1,1,7.071,0" stroke="black" stroke-width="2" opacity="1"/><path aria-label="Median: 4.34; Product: Poultry Meat; Product Type: Animal Products" role="graphics-symbol" aria-roledescription="point" transform="translate(16.12,290.375)" d="M7.071,0A7.071,7.071,0,1,1,-7.071,0A7.071,7.071,0,1,1,7.071,0" stroke="black" stroke-width="2" opacity="1"/><path aria-label="Median: 2.65; Product: Milk; Product Type: Animal Products" role="graphics-symbol" aria-roledescription="point" transform="translate(9.842857142857142,164.125)" d="M7.071,0A7.071,7.071,0,1,1,-7.071,0A7.071,7.071,0,1,1,7.071,0" stroke="black" stroke-width="2" opacity="1"/><path aria-label="Median: 8.44; Product: Cheese; Product Type: Animal Products" role="graphics-symbol" aria-roledescription="point" transform="translate(31.34857142857143,63.124999999999986)" d="M7.071,0A7.071,7.071,0,1,1,-7.071,0A7.071,7.071,0,1,1,7.071,0" stroke="black" stroke-width="2" opacity="1"/><path aria-label="Median: 3.46; Product: Fish (farmed); Product Type: Animal Products" role="graphics-symbol" aria-roledescription="point" transform="translate(12.85142857142857,113.62499999999999)" d="M7.071,0A7.071,7.071,0,1,1,-7.071,0A7.071,7.071,0,1,1,7.071,0" stroke="black" stroke-width="2" opacity="1"/><path aria-label="Median: 9.96; Product: Crustaceans (farmed); Product Type: Animal Products" role="graphics-symbol" aria-roledescription="point" transform="translate(36.994285714285716,88.37499999999999)" d="M7.071,0A7.071,7.071,0,1,1,-7.071,0A7.071,7.071,0,1,1,7.071,0" stroke="black" stroke-width="2" opacity="1"/></g></g><path class="foreground" aria-hidden="true" d="" display="none"/></g></g></g></svg>