<svg xmlns="http://www.w3.org/2000/svg" xmlns:xlink="http://www.w3.org/1999/xlink" version="1.1" class="marks" width="1049" height="643" viewBox="0 0 1049 643"><rect width="1049" height="643" fill="white"/><g fill="none" stroke-miterlimit="10" transform="translate(137,6)"><g class="mark-group role-frame root" role="graphics-object" aria-roledescription="group mark container"><g transform="translate(0,0)"><path class="background" aria-hidden="true" d="M0.5,0.5h800v600h-800Z" stroke="#ddd"/><g><g class="mark-group role-axis" aria-hidden="true"><g transform="translate(0.5,600.5)"><path class="background" aria-hidden="true" d="M0,0h0v0h0Z" pointer-events="none"/><g><g class="mark-rule role-axis-grid" pointer-events="none"><line transform="translate(0,0)" x2="0" y2="-600" stroke="#ddd" stroke-width="1" opacity="1"/><line transform="translate(29,0)" x2="0" y2="-600" stroke="#ddd" stroke-width="1" opacity="1"/><line transform="translate(57,0)" x2="0" y2="-600" stroke="#ddd" stroke-width="1" opacity="1"/><line transform="translate(86,0)" x2="0" y2="-600" stroke="#ddd" stroke-width="1" opacity="1"/><line transform="translate(114,0)" x2="0" y2="-600" stroke="#ddd" stroke-width="1" opacity="1"/><line transform="translate(143,0)" x2="0" y2="-600" stroke="#ddd" stroke-width="1" opacity="1"/><line transform="translate(171,0)" x2="0" y2="-600" stroke="#ddd" stroke-width="1" opacity="1"/><line transform="translate(200,0)" x2="0" y2="-600" stroke="#ddd" stroke-width="1" opacity="1"/><line transform="translate(229,0)" x2="0" y2="-600" stroke="#ddd" stroke-width="1" opacity="1"/><line transform="translate(257,0)" x2="0" y2="-600" stroke="#ddd" stroke-width="1" opacity="1"/><line transform="translate(286,0)" x2="0" y2="-600" stroke="#ddd" stroke-width="1" opacity="1"/><line transform="translate(314,0)" x2="0" y2="-600" stroke="#ddd" stroke-width="1" opacity="1"/><line transform="translate(343,0)" x2="0" y2="-600" stroke="#ddd" stroke-width="1" opacity="1"/><line transform="translate(371,0)" x2="0" y2="-600" stroke="#ddd" stroke-width="1" opacity="1"/><line transform="translate(400,0)" x2="0" y2="-600" stroke="#ddd" stroke-width="1" opacity="1"/><line transform="translate(429,0)" x2="0" y2="-600" stroke="#ddd" stroke-width="1" opacity="1"/><line transform="translate(457,0)" x2="0" y2="-600" stroke="#ddd" stroke-width="1" opacity="1"/><line transform="translate(486,0)" x2="0" y2="-600" stroke="#ddd" stroke-width="1" opacity="1"/><line transform="translate(514,0)" x2="0" y2="-600" stroke="#ddd" stroke-width="1" opacity="1"/><line transform="translate(543,0)" x2="0" y2="-600" stroke="#ddd" stroke-width="1" opacity="1"/><line transform="translate(571,0)" x2="0" y2="-600" stroke="#ddd" stroke-width="1" opacity="1"/><line transform="translate(600,0)" x2="0" y2="-600" stroke="#ddd" stroke-width="1" opacity="1"/><line transform="translate(629,0)" x2="0" y2="-600" stroke="#ddd" stroke-width="1" opacity="1"/><line transform="translate(657,0)" x2="0" y2="-600" stroke="#ddd" stroke-width="1" opacity="1"/><line transform="translate(686,0)" x2="0" y2="-600" stroke="#ddd" stroke-width="1" opacity="1"/><line transform="translate(714,0)" x2="0" y2="-600" stroke="#ddd" stroke-width="1" opacity="1"/><line transform="translate(743,0)" x2="0" y2="-600" stroke="#ddd" stroke-width="1" opacity="1"/><line transform="translate(771,0)" x2="0" y2="-600" stroke="#ddd" stroke-width="1" opacity="1"/><line transform="translate(800,0)" x2="0" y2="-600" stroke="#ddd" stroke-width="1" opacity="1"/></g></g><path class="foreground" aria-hidden="true" d="" pointer-events="none" display="none"/></g></g><g class="mark-group role-axis" role="graphics-symbol" aria-roledescription="axis" aria-label="X-axis titled 'GHG Emissions (kg CO2eq/kg)' for a linear scale with values from 0 to 140"><g transform="translate(0.5,600.5)"><path class="background" aria-hidden="true" d="M0,0h0v0h0Z" pointer-events="none"/><g><g class="mark-rule role-axis-tick" pointer-events="none"><line transform="translate(0,0)" x2="0" y2="5" stroke="#888" stroke-width="1" opacity="1"/><line transform="translate(29,0)" x2="0" y2="5" stroke="#888" stroke-width="1" opacity="1"/><line transform="translate(57,0)" x2="0" y2="5" stroke="#888" stroke-width="1" opacity="1"/><line transform="translate(86,0)" x2="0" y2="5" stroke="#888" stroke-width="1" opacity="1"/><line transform="translate(114,0)" x2="0" y2="5" stroke="#888" stroke-width="1" opacity="1"/><line transform="translate(143,0)" x2="0" y2="5" stroke="#888" stroke-width="1" opacity="1"/><line transform="translate(171,0)" x2="0" y2="5" stroke="#888" stroke-width="1" opacity="1"/><line transform="translate(200,0)" x2="0" y2="5" stroke="#888" stroke-width="1" opacity="1"/><line transform="translate(229,0)" x2="0" y2="5" stroke="#888" stroke-width="1" opacity="1"/><line transform="translate(257,0)" x2="0" y2="5" stroke="#888" stroke-width="1" opacity="1"/><line transform="translate(286,0)" x2="0" y2="5" stroke="#888" stroke-width="1" opacity="1"/><line transform="translate(314,0)" x2="0" y2="5" stroke="#888" stroke-width="1" opacity="1"/><line transform="translate(343,0)" x2="0" y2="5" stroke="#888" stroke-width="1" opacity="1"/><line transform="translate(371,0)" x2="0" y2="5" stroke="#888" stroke-width="1" opacity="1"/><line transform="translate(400,0)" x2="0" y2="5" stroke="#888" stroke-width="1" opacity="1"/><line transform="translate(429,0)" x2="0" y2="5" stroke="#888" stroke-width="1" opacity="1"/><line transform="translate(457,0)" x2="0" y2="5" stroke="#888" stroke-width="1" opacity="1"/><line transform="translate(486,0)" x2="0" y2="5" stroke="#888" stroke-width="1" opacity="1"/><line transform="translate(514,0)" x2="0" y2="5" stroke="#888" stroke-width="1" opacity="1"/><line transform="translate(543,0)" x2="0" y2="5" stroke="#888" stroke-width="1" opacity="1"/><line transform="translate(571,0)" x2="0" y2="5" stroke="#888" stroke-width="1" opacity="1"/><line transform="translate(600,0)" x2="0" y2="5" stroke="#888" stroke-width="1" opacity="1"/><line transform="translate(629,0)" x2="0" y2="5" stroke="#888" stroke-width="1" opacity="1"/><line transform="translate(657,0)" x2="0" y2="5" stroke="#888" stroke-width="1" opacity="1"/><line transform="translate(686,0)" x2="0" y2="5" stroke="#888" stroke-width="1" opacity="1"/><line transform="translate(714,0)" x2="0" y2="5" stroke="#888" stroke-width="1" opacity="1"/><line transform="translate(743,0)" x2="0" y2="5" stroke="#888" stroke-width="1" opacity="1"/><line transform="translate(771,0)" x2="0" y2="5" stroke="#888" stroke-width="1" opacity="1"/><line transform="translate(800,0)" x2="0" y2="5" stroke="#888" stroke-width="1" opacity="1"/></g><g class="mark-text role-axis-label" pointer-events="none"><text text-anchor="start" transform="translate(0,15)" font-family="sans-serif" font-size="10px" fill="#000" opacity="1">0</text><text text-anchor="middle" transform="translate(28.57142857142857,15)" font-family="sans-serif" font-size="10px" fill="#000" opacity="1">5</text><text text-anchor="middle" transform="translate(57.14285714285714,15)" font-family="sans-serif" font-size="10px" fill="#000" opacity="1">10</text><text text-anchor="middle" transform="translate(85.71428571428571,15)" font-family="sans-serif" font-size="10px" fill="#000" opacity="1">15</text><text text-anchor="middle" transform="translate(114.28571428571428,15)" font-family="sans-serif" font-size="10px" fill="#000" opacity="1">20</text><text text-anchor="middle" transform="translate(142.85714285714286,15)" font-family="sans-serif" font-size="10px" fill="#000" opacity="1">25</text><text text-anchor="middle" transform="translate(171.42857142857142,15)" font-family="sans-serif" font-size="10px" fill="#000" opacity="1">30</text><text text-anchor="middle" transform="translate(200,15)" font-family="sans-serif" font-size="10px" fill="#000" opacity="1">35</text><text text-anchor="middle" transform="translate(228.57142857142856,15)" font-family="sans-serif" font-size="10px" fill="#000" opacity="1">40</text><text text-anchor="middle" transform="translate(257.14285714285717,15)" font-family="sans-serif" font-size="10px" fill="#000" opacity="1">45</text><text text-anchor="middle" transform="translate(285.7142857142857,15)" font-family="sans-serif" font-size="10px" fill="#000" opacity="1">50</text><text text-anchor="middle" transform="translate(314.2857142857143,15)" font-family="sans-serif" font-size="10px" fill="#000" opacity="1">55</text><text text-anchor="middle" transform="translate(342.85714285714283,15)" font-family="sans-serif" font-size="10px" fill="#000" opacity="1">60</text><text text-anchor="middle" transform="translate(371.42857142857144,15)" font-family="sans-serif" font-size="10px" fill="#000" opacity="1">65</text><text text-anchor="middle" transform="translate(400,15)" font-family="sans-serif" font-size="10px" fill="#000" opacity="1">70</text><text text-anchor="middle" transform="translate(428.57142857142856,15)" font-family="sans-serif" font-size="10px" fill="#000" opacity="1">75</text><text text-anchor="middle" transform="translate(457.1428571428571,15)" font-family="sans-serif" font-size="10px" fill="#000" opacity="1">80</text><text text-anchor="middle" transform="translate(485.71428571428567,15)" font-family="sans-serif" font-size="10px" fill="#000" opacity="1">85</text><text text-anchor="middle" transform="translate(514.2857142857143,15)" font-family="sans-serif" font-size="10px" fill="#000" opacity="1">90</text><text text-anchor="middle" transform="translate(542.8571428571429,15)" font-family="sans-serif" font-size="10px" fill="#000" opacity="1">95</text><text text-anchor="middle" transform="translate(571.4285714285714,15)" font-family="sans-serif" font-size="10px" fill="#000" opacity="1">100</text><text text-anchor="middle" transform="translate(600,15)" font-family="sans-serif" font-size="10px" fill="#000" opacity="1">105</text><text text-anchor="middle" transform="translate(628.5714285714286,15)" font-family="sans-serif" font-size="10px" fill="#000" opacity="1">110</text><text text-anchor="middle" transform="translate(657.1428571428571,15)" font-family="sans-serif" font-size="10px" fill="#000" opacity="1">115</text><text text-anchor="middle" transform="translate(685.7142857142857,15)" font-family="sans-serif" font-size="10px" fill="#000" opacity="1">120</text><text text-anchor="middle" transform="translate(714.2857142857143,15)" font-family="sans-serif" font-size="10px" fill="#000" opacity="1">125</text><text text-anchor="middle" transform="translate(742.8571428571429,15)" font-family="sans-serif" font-size="10px" fill="#000" opacity="1">130</text><text text-anchor="middle" transform="translate(771.4285714285714,15)" font-family="sans-serif" font-size="10px" fill="#000" opacity="1">135</text><text text-anchor="end" transform="translate(800,15)" font-family="sans-serif" font-size="10px" fill="#000" opacity="1">140</text></g><g class="mark-rule role-axis-domain" pointer-events="none"><line transform="translate(0,0)" x2="800" y2="0" stroke="#888" stroke-width="1" opacity="1"/></g><g class="mark-text role-axis-title" pointer-events="none"><text text-anchor="middle" transform="translate(400,30)" font-family="sans-serif" font-size="11px" font-weight="bold" fill="#000" opacity="1">GHG Emissions (kg CO2eq/kg)</text></g></g><path class="foreground" aria-hidden="true" d="" pointer-events="none" display="none"/></g></g><g class="mark-group role-axis" role="graphics-symbol" aria-roledescription="axis" aria-label="Y-axis titled 'Product' for a discrete scale with 16 values: Bovine Meat (beef herd), Bovine Meat (dairy herd), Cheese, Crustaceans (farmed), Fish (farmed), ending with Tomatoes"><g transform="translate(0.5,0.5)"><path class="background" aria-hidden="true" d="M0,0h0v0h0Z" pointer-events="none"/><g><g class="mark-rule role-axis-tick" pointer-events="none"><line transform="translate(0,18)" x2="-5" y2="0" stroke="#888" stroke-width="1" opacity="1"/><line transform="translate(0,56)" x2="-5" y2="0" stroke="#888" stroke-width="1" opacity="1"/><line transform="translate(0,93)" x2="-5" y2="0" stroke="#888" stroke-width="1" opacity="1"/><line transform="translate(0,131)" x2="-5" y2="0" stroke="#888" stroke-width="1" opacity="1"/><line transform="translate(0,168)" x2="-5" y2="0" stroke="#888" stroke-width="1" opacity="1"/><line transform="translate(0,206)" x2="-5" y2="0" stroke="#888" stroke-width="1" opacity="1"/><line transform="translate(0,243)" x2="-5" y2="0" stroke="#888" stroke-width="1" opacity="1"/><line transform="translate(0,281)" x2="-5" y2="0" stroke="#888" stroke-width="1" opacity="1"/><line transform="translate(0,318)" x2="-5" y2="0" stroke="#888" stroke-width="1" opacity="1"/><line transform="translate(0,356)" x2="-5" y2="0" stroke="#888" stroke-width="1" opacity="1"/><line transform="translate(0,393)" x2="-5" y2="0" stroke="#888" stroke-width="1" opacity="1"/><line transform="translate(0,431)" x2="-5" y2="0" stroke="#888" stroke-width="1" opacity="1"/><line transform="translate(0,468)" x2="-5" y2="0" stroke="#888" stroke-width="1" opacity="1"/><line transform="translate(0,506)" x2="-5" y2="0" stroke="#888" stroke-width="1" opacity="1"/><line transform="translate(0,543)" x2="-5" y2="0" stroke="#888" stroke-width="1" opacity="1"/><line transform="translate(0,581)" x2="-5" y2="0" stroke="#888" stroke-width="1" opacity="1"/></g><g class="mark-text role-axis-label" pointer-events="none"><text text-anchor="end" transform="translate(-7,21.25)" font-family="sans-serif" font-size="10px" fill="#000" opacity="1">Bovine Meat (beef herd)</text><text text-anchor="end" transform="translate(-7,58.75)" font-family="sans-serif" font-size="10px" fill="#000" opacity="1">Bovine Meat (dairy herd)</text><text text-anchor="end" transform="translate(-7,96.25)" font-family="sans-serif" font-size="10px" fill="#000" opacity="1">Cheese</text><text text-anchor="end" transform="translate(-7,133.75)" font-family="sans-serif" font-size="10px" fill="#000" opacity="1">Crustaceans (farmed)</text><text text-anchor="end" transform="translate(-7,171.25)" font-family="sans-serif" font-size="10px" fill="#000" opacity="1">Fish (farmed)</text><text text-anchor="end" transform="translate(-7,208.75)" font-family="sans-serif" font-size="10px" fill="#000" opacity="1">Lamb &amp; Mutton</text><text text-anchor="end" transform="translate(-7,246.25)" font-family="sans-serif" font-size="10px" fill="#000" opacity="1">Milk</text><text text-anchor="end" transform="translate(-7,283.75)" font-family="sans-serif" font-size="10px" fill="#000" opacity="1">Olive Oil</text><text text-anchor="end" transform="translate(-7,321.25)" font-family="sans-serif" font-size="10px" fill="#000" opacity="1">Peas</text><text text-anchor="end" transform="translate(-7,358.75)" font-family="sans-serif" font-size="10px" fill="#000" opacity="1">Pig Meat</text><text text-anchor="end" transform="translate(-7,396.25)" font-family="sans-serif" font-size="10px" fill="#000" opacity="1">Potatoes</text><text text-anchor="end" transform="translate(-7,433.75)" font-family="sans-serif" font-size="10px" fill="#000" opacity="1">Poultry Meat</text><text text-anchor="end" transform="translate(-7,471.25)" font-family="sans-serif" font-size="10px" fill="#000" opacity="1">Rice</text><text text-anchor="end" transform="translate(-7,508.75)" font-family="sans-serif" font-size="10px" fill="#000" opacity="1">Soymilk</text><text text-anchor="end" transform="translate(-7,546.25)" font-family="sans-serif" font-size="10px" fill="#000" opacity="1">Tofu</text><text text-anchor="end" transform="translate(-7,583.75)" font-family="sans-serif" font-size="10px" fill="#000" opacity="1">Tomatoes</text></g><g class="mark-rule role-axis-domain" pointer-events="none"><line transform="translate(0,0)" x2="0" y2="600" stroke="#888" stroke-width="1" opacity="1"/></g><g class="mark-text role-axis-title" pointer-events="none"><text text-anchor="middle" transform="translate(-120.4921875,300) rotate(-90) translate(0,-2)" font-family="sans-serif" font-size="11px" font-weight="bold" fill="#000" opacity="1">Product</text></g></g><path class="foreground" aria-hidden="true" d="" pointer-events="none" display="none"/></g></g><g class="mark-rect role-mark layer_0_marks" role="graphics-object" aria-roledescription="rect mark container"><path aria-label="GHG Emissions (kg CO2eq/kg): 0.311991318502; Product: Rice; 95th pctl: 2.78350515464; Product Type: Plants" role="graphics-symbol" aria-roledescription="bar" d="M8.844275637547476,458.75L8.844275637547478,458.75C12.741605978715093,458.75,15.905743740795288,461.9141377620802,15.905743740795288,465.8114681032478L15.905743740795288,471.6885318967522C15.905743740795288,475.5858622379198,12.741605978715093,478.75,8.844275637547478,478.75L8.844275637547476,478.75C4.946945296379862,478.75,1.7828075342996668,475.5858622379198,1.7828075342996668,471.6885318967522L1.7828075342996668,465.8114681032478C1.7828075342996668,461.9141377620802,4.946945296379862,458.75,8.844275637547476,458.75Z" fill="green"/><path aria-label="GHG Emissions (kg CO2eq/kg): 0.122950819672; Product: Potatoes; 95th pctl: 0.956284153005; Product Type: Plants" role="graphics-symbol" aria-roledescription="bar" d="M3.083528493364559,383.75L3.083528493364559,383.75C4.397611885016939,383.75,5.46448087431694,384.8168689893,5.46448087431694,386.1309523809524L5.46448087431694,401.3690476190476C5.46448087431694,402.6831310107,4.397611885016939,403.75,3.083528493364559,403.75L3.083528493364559,403.75C1.769445101712178,403.75,0.702576112412178,402.6831310107,0.702576112412178,401.3690476190476L0.702576112412178,386.1309523809524C0.702576112412178,384.8168689893,1.769445101712178,383.75,3.083528493364559,383.75Z" fill="green"/><path aria-label="GHG Emissions (kg CO2eq/kg): 0.229522952295; Product: Peas; 95th pctl: 0.841584158416; Product Type: Plants" role="graphics-symbol" aria-roledescription="bar" d="M3.0603060306030603,308.75L3.0603060306030603,308.75C4.025465389368446,308.75,4.809052333804809,309.53358694443637,4.809052333804809,310.49874630320176L4.809052333804809,327.00125369679824C4.809052333804809,327.96641305556363,4.025465389368446,328.75,3.0603060306030603,328.75L3.0603060306030603,328.75C2.095146671837675,328.75,1.3115597274013115,327.96641305556363,1.3115597274013115,327.00125369679824L1.3115597274013115,310.49874630320176C1.3115597274013115,309.53358694443637,2.095146671837675,308.75,3.0603060306030603,308.75Z" fill="green"/><path aria-label="GHG Emissions (kg CO2eq/kg): 0.51; Product: Soymilk; 95th pctl: 1.74; Product Type: Plants" role="graphics-symbol" aria-roledescription="bar" d="M6.428571428571429,496.25L6.428571428571429,496.25C8.368158514650343,496.25,9.942857142857143,497.8246986282068,9.942857142857143,499.76428571428573L9.942857142857143,512.7357142857143C9.942857142857143,514.6753013717932,8.368158514650343,516.25,6.428571428571429,516.25L6.428571428571429,516.25C4.488984342492515,516.25,2.9142857142857146,514.6753013717932,2.9142857142857146,512.7357142857143L2.9142857142857146,499.76428571428573C2.9142857142857146,497.8246986282068,4.488984342492515,496.25,6.428571428571429,496.25Z" fill="green"/><path aria-label="GHG Emissions (kg CO2eq/kg): 0.88125; Product: Tofu; 95th pctl: 4.54375; Product Type: Plants" role="graphics-symbol" aria-roledescription="bar" d="M15.035714285714285,533.75L15.964285714285712,533.75C21.483435959225712,533.75,25.96428571428571,538.23084975506,25.96428571428571,543.75L25.96428571428571,543.75C25.96428571428571,549.26915024494,21.483435959225712,553.75,15.964285714285712,553.75L15.035714285714285,553.75C9.516564040774284,553.75,5.035714285714285,549.26915024494,5.035714285714285,543.75L5.035714285714285,543.75C5.035714285714285,538.23084975506,9.516564040774284,533.75,15.035714285714285,533.75Z" fill="green"/><path aria-label="GHG Emissions (kg CO2eq/kg): 2.13; Product: Olive Oil; 95th pctl: 10.79; Product Type: Plants" role="graphics-symbol" aria-roledescription="bar" d="M22.17142857142857,271.25L51.65714285714286,271.25C57.17629310208286,271.25,61.65714285714286,275.73084975506,61.65714285714286,281.25L61.65714285714286,281.25C61.65714285714286,286.76915024494,57.17629310208286,291.25,51.65714285714286,291.25L22.17142857142857,291.25C16.65227832648857,291.25,12.17142857142857,286.76915024494,12.17142857142857,281.25L12.17142857142857,281.25C12.17142857142857,275.73084975506,16.65227832648857,271.25,22.17142857142857,271.25Z" fill="green"/><path aria-label="GHG Emissions (kg CO2eq/kg): 0.37; Product: Tomatoes; 95th pctl: 12.62; Product Type: Plants" role="graphics-symbol" aria-roledescription="bar" d="M12.114285714285714,571.25L62.114285714285714,571.25C67.63343595922571,571.25,72.11428571428571,575.73084975506,72.11428571428571,581.25L72.11428571428571,581.25C72.11428571428571,586.76915024494,67.63343595922571,591.25,62.114285714285714,591.25L12.114285714285714,591.25C6.595135469345715,591.25,2.1142857142857143,586.76915024494,2.1142857142857143,581.25L2.1142857142857143,581.25C2.1142857142857143,575.73084975506,6.595135469345715,571.25,12.114285714285714,571.25Z" fill="green"/><path aria-label="GHG Emissions (kg CO2eq/kg): 18.8415245737; Product: Bovine Meat (beef herd); 95th pctl: 135; Product Type: Animal Products" role="graphics-symbol" aria-roledescription="bar" d="M117.66585470697807,8.75L761.4285714285714,8.75C766.9477216735114,8.75,771.4285714285714,13.23084975506,771.4285714285714,18.75L771.4285714285714,18.75C771.4285714285714,24.26915024494,766.9477216735114,28.75,761.4285714285714,28.75L117.66585470697807,28.75C112.14670446203807,28.75,107.66585470697807,24.26915024494,107.66585470697807,18.75L107.66585470697807,18.75C107.66585470697807,13.23084975506,112.14670446203807,8.75,117.66585470697807,8.75Z" fill="red"/><path aria-label="GHG Emissions (kg CO2eq/kg): 7.56332320162; Product: Bovine Meat (dairy herd); 95th pctl: 28.7132725431; Product Type: Animal Products" role="graphics-symbol" aria-roledescription="bar" d="M53.218989723548994,46.25L154.0758431031987,46.25C159.5949933481387,46.25,164.0758431031987,50.73084975506,164.0758431031987,56.25L164.0758431031987,56.25C164.0758431031987,61.76915024494,159.5949933481387,66.25,154.0758431031987,66.25L53.218989723548994,66.25C47.69983947860899,66.25,43.218989723548994,61.76915024494,43.218989723548994,56.25L43.218989723548994,56.25C43.218989723548994,50.73084975506,47.69983947860899,46.25,53.218989723548994,46.25Z" fill="red"/><path aria-label="GHG Emissions (kg CO2eq/kg): 11.844077961; Product: Lamb &amp; Mutton; 95th pctl: 30.0649675162; Product Type: Animal Products" role="graphics-symbol" aria-roledescription="bar" d="M77.68044549153994,196.25L161.79981437852504,196.25C167.31896462346504,196.25,171.79981437852504,200.73084975506,171.79981437852504,206.25L171.79981437852504,206.25C171.79981437852504,211.76915024494,167.31896462346504,216.25,161.79981437852504,216.25L77.68044549153994,216.25C72.16129524659995,216.25,67.68044549153994,211.76915024494,67.68044549153994,206.25L67.68044549153994,206.25C67.68044549153994,200.73084975506,72.16129524659995,196.25,77.68044549153994,196.25Z" fill="red"/><path aria-label="GHG Emissions (kg CO2eq/kg): 4.27070457355; Product: Pig Meat; 95th pctl: 14.7033374536; Product Type: Animal Products" role="graphics-symbol" aria-roledescription="bar" d="M34.404026134557654,346.25L74.01907116369415,346.25C79.53822140863414,346.25,84.01907116369415,350.73084975506,84.01907116369415,356.25L84.01907116369415,356.25C84.01907116369415,361.76915024494,79.53822140863414,366.25,74.01907116369415,366.25L34.404026134557654,366.25C28.88487588961765,366.25,24.40402613455765,361.76915024494,24.40402613455765,356.25L24.40402613455765,356.25C24.40402613455765,350.73084975506,28.88487588961765,346.25,34.404026134557654,346.25Z" fill="red"/><path aria-label="GHG Emissions (kg CO2eq/kg): 2.28060046189; Product: Poultry Meat; 95th pctl: 12.0207852194; Product Type: Animal Products" role="graphics-symbol" aria-roledescription="bar" d="M23.032002639392942,421.25L58.69020125371165,421.25C64.20935149865164,421.25,68.69020125371165,425.73084975506,68.69020125371165,431.25L68.69020125371165,431.25C68.69020125371165,436.76915024494,64.20935149865164,441.25,58.69020125371165,441.25L23.032002639392942,441.25C17.512852394452942,441.25,13.032002639392942,436.76915024494,13.032002639392942,431.25L13.032002639392942,431.25C13.032002639392942,425.73084975506,17.512852394452942,421.25,23.032002639392942,421.25Z" fill="red"/><path aria-label="GHG Emissions (kg CO2eq/kg): 1.51; Product: Milk; 95th pctl: 7; Product Type: Animal Products" role="graphics-symbol" aria-roledescription="bar" d="M18.628571428571426,233.75L30,233.75C35.51915024494,233.75,40,238.23084975506,40,243.75L40,243.75C40,249.26915024494,35.51915024494,253.75,30,253.75L18.628571428571426,253.75C13.10942118363143,253.75,8.628571428571428,249.26915024494,8.628571428571428,243.75L8.628571428571428,243.75C8.628571428571428,238.23084975506,13.10942118363143,233.75,18.628571428571426,233.75Z" fill="red"/><path aria-label="GHG Emissions (kg CO2eq/kg): 4.6240942029; Product: Cheese; 95th pctl: 26.6259057971; Product Type: Animal Products" role="graphics-symbol" aria-roledescription="bar" d="M36.423395445134574,83.75L142.14803312629397,83.75C147.66718337123396,83.75,152.14803312629397,88.23084975506,152.14803312629397,93.75L152.14803312629397,93.75C152.14803312629397,99.26915024494,147.66718337123396,103.75,142.14803312629397,103.75L36.423395445134574,103.75C30.904245200194573,103.75,26.423395445134574,99.26915024494,26.423395445134574,93.75L26.423395445134574,93.75C26.423395445134574,88.23084975506,30.904245200194573,83.75,36.423395445134574,83.75Z" fill="red"/><path aria-label="GHG Emissions (kg CO2eq/kg): 2.37228677922; Product: Fish (farmed); 95th pctl: 14.3126507345; Product Type: Animal Products" role="graphics-symbol" aria-roledescription="bar" d="M23.555924452657624,158.75L71.78657562564601,158.75C77.305725870586,158.75,81.78657562564601,163.23084975506,81.78657562564601,168.75L81.78657562564601,168.75C81.78657562564601,174.26915024494,77.305725870586,178.75,71.78657562564601,178.75L23.555924452657624,178.75C18.036774207717624,178.75,13.555924452657624,174.26915024494,13.555924452657624,168.75L13.555924452657624,168.75C13.555924452657624,163.23084975506,18.036774207717624,158.75,23.555924452657624,158.75Z" fill="red"/><path aria-label="GHG Emissions (kg CO2eq/kg): 5.01692620176; Product: Crustaceans (farmed); 95th pctl: 77.9214624238; Product Type: Animal Products" role="graphics-symbol" aria-roledescription="bar" d="M38.668149724344715,121.25L435.2654995647548,121.25C440.7846498096948,121.25,445.2654995647548,125.73084975506,445.2654995647548,131.25L445.2654995647548,131.25C445.2654995647548,136.76915024494,440.7846498096948,141.25,435.2654995647548,141.25L38.668149724344715,141.25C33.148999479404715,141.25,28.668149724344712,136.76915024494,28.668149724344712,131.25L28.668149724344712,131.25C28.668149724344712,125.73084975506,33.148999479404715,121.25,38.668149724344715,121.25Z" fill="red"/></g><g class="mark-symbol role-mark layer_1_marks" role="graphics-object" aria-roledescription="symbol mark container"><path aria-label="Mean: 1.20727075421; Product: Rice" role="graphics-symbol" aria-roledescription="point" transform="translate(6.898690024029146,468.75)" d="M7.071,0A7.071,7.071,0,1,1,-7.071,0A7.071,7.071,0,1,1,7.071,0" stroke="black" stroke-width="2" opacity="0.7"/><path aria-label="Mean: 0.628415300546; Product: Potatoes" role="graphics-symbol" aria-roledescription="point" transform="translate(3.5909445745511324,393.75)" d="M7.071,0A7.071,7.071,0,1,1,-7.071,0A7.071,7.071,0,1,1,7.071,0" stroke="black" stroke-width="2" opacity="0.7"/><path aria-label="Mean: 0.44104410441; Product: Peas" role="graphics-symbol" aria-roledescription="point" transform="translate(2.5202520252025202,318.75)" d="M7.071,0A7.071,7.071,0,1,1,-7.071,0A7.071,7.071,0,1,1,7.071,0" stroke="black" stroke-width="2" opacity="0.7"/><path aria-label="Mean: 0.98; Product: Soymilk" role="graphics-symbol" aria-roledescription="point" transform="translate(5.6000000000000005,506.25)" d="M7.071,0A7.071,7.071,0,1,1,-7.071,0A7.071,7.071,0,1,1,7.071,0" stroke="black" stroke-width="2" opacity="0.7"/><path aria-label="Mean: 1.975; Product: Tofu" role="graphics-symbol" aria-roledescription="point" transform="translate(11.285714285714286,543.75)" d="M7.071,0A7.071,7.071,0,1,1,-7.071,0A7.071,7.071,0,1,1,7.071,0" stroke="black" stroke-width="2" opacity="0.7"/><path aria-label="Mean: 5.42; Product: Olive Oil" role="graphics-symbol" aria-roledescription="point" transform="translate(30.97142857142857,281.25)" d="M7.071,0A7.071,7.071,0,1,1,-7.071,0A7.071,7.071,0,1,1,7.071,0" stroke="black" stroke-width="2" opacity="0.7"/><path aria-label="Mean: 2.09; Product: Tomatoes" role="graphics-symbol" aria-roledescription="point" transform="translate(11.942857142857143,581.25)" d="M7.071,0A7.071,7.071,0,1,1,-7.071,0A7.071,7.071,0,1,1,7.071,0" stroke="black" stroke-width="2" opacity="0.7"/><path aria-label="Mean: 49.889669007; Product: Bovine Meat (beef herd)" role="graphics-symbol" aria-roledescription="point" transform="translate(285.0838228972632,18.75)" d="M7.071,0A7.071,7.071,0,1,1,-7.071,0A7.071,7.071,0,1,1,7.071,0" stroke="black" stroke-width="2" opacity="0.7"/><path aria-label="Mean: 16.8693009119; Product: Bovine Meat (dairy herd)" role="graphics-symbol" aria-roledescription="point" transform="translate(96.39600521059486,56.25)" d="M7.071,0A7.071,7.071,0,1,1,-7.071,0A7.071,7.071,0,1,1,7.071,0" stroke="black" stroke-width="2" opacity="0.7"/><path aria-label="Mean: 19.8500749625; Product: Lamb &amp; Mutton" role="graphics-symbol" aria-roledescription="point" transform="translate(113.42899978582138,206.25)" d="M7.071,0A7.071,7.071,0,1,1,-7.071,0A7.071,7.071,0,1,1,7.071,0" stroke="black" stroke-width="2" opacity="0.7"/><path aria-label="Mean: 7.60815822002; Product: Pig Meat" role="graphics-symbol" aria-roledescription="point" transform="translate(43.47518982871269,356.25)" d="M7.071,0A7.071,7.071,0,1,1,-7.071,0A7.071,7.071,0,1,1,7.071,0" stroke="black" stroke-width="2" opacity="0.7"/><path aria-label="Mean: 5.69861431871; Product: Poultry Meat" role="graphics-symbol" aria-roledescription="point" transform="translate(32.56351039260969,431.25)" d="M7.071,0A7.071,7.071,0,1,1,-7.071,0A7.071,7.071,0,1,1,7.071,0" stroke="black" stroke-width="2" opacity="0.7"/><path aria-label="Mean: 3.15; Product: Milk" role="graphics-symbol" aria-roledescription="point" transform="translate(18,243.75)" d="M7.071,0A7.071,7.071,0,1,1,-7.071,0A7.071,7.071,0,1,1,7.071,0" stroke="black" stroke-width="2" opacity="0.7"/><path aria-label="Mean: 10.8152173913; Product: Cheese" role="graphics-symbol" aria-roledescription="point" transform="translate(61.801242236024834,93.75)" d="M7.071,0A7.071,7.071,0,1,1,-7.071,0A7.071,7.071,0,1,1,7.071,0" stroke="black" stroke-width="2" opacity="0.7"/><path aria-label="Mean: 5.97675948257; Product: Fish (farmed)" role="graphics-symbol" aria-roledescription="point" transform="translate(34.15291132896921,168.75)" d="M7.071,0A7.071,7.071,0,1,1,-7.071,0A7.071,7.071,0,1,1,7.071,0" stroke="black" stroke-width="2" opacity="0.7"/><path aria-label="Mean: 18.192281652; Product: Crustaceans (farmed)" role="graphics-symbol" aria-roledescription="point" transform="translate(103.95589515427024,131.25)" d="M7.071,0A7.071,7.071,0,1,1,-7.071,0A7.071,7.071,0,1,1,7.071,0" stroke="black" stroke-width="2" opacity="0.7"/></g><g class="mark-rule role-mark layer_2_marks" role="graphics-object" aria-roledescription="rule mark container"><line aria-label="a: 7.56332320162" role="graphics-symbol" aria-roledescription="rule mark" transform="translate(43.218989723548994,0)" x2="0" y2="600" stroke="black" stroke-dasharray="3,3"/><line aria-label="a: 7.56332320162" role="graphics-symbol" aria-roledescription="rule mark" transform="translate(43.218989723548994,0)" x2="0" y2="600" stroke="black" stroke-dasharray="3,3"/><line aria-label="a: 7.56332320162" role="graphics-symbol" aria-roledescription="rule mark" transform="translate(43.218989723548994,0)" x2="0" y2="600" stroke="black" stroke-dasharray="3,3"/><line aria-label="a: 7.56332320162" role="graphics-symbol" aria-roledescription="rule mark" transform="translate(43.218989723548994,0)" x2="0" y2="600" stroke="black" stroke-dasharray="3,3"/><line aria-label="a: 7.56332320162" role="graphics-symbol" aria-roledescription="rule mark" transform="translate(43.218989723548994,0)" x2="0" y2="600" stroke="black" stroke-dasharray="3,3"/><line aria-label="a: 7.56332320162" role="graphics-symbol" aria-roledescription="rule mark" transform="translate(43.218989723548994,0)" x2="0" y2="600" stroke="black" stroke-dasharray="3,3"/><line aria-label="a: 7.56332320162" role="graphics-symbol" aria-roledescription="rule mark" transform="translate(43.218989723548994,0)" x2="0" y2="600" stroke="black" stroke-dasharray="3,3"/><line aria-label="a: 7.56332320162" role="graphics-symbol" aria-roledescription="rule mark" transform="translate(43.218989723548994,0)" x2="0" y2="600" stroke="black" stroke-dasharray="3,3"/><line aria-label="a: 7.56332320162" role="graphics-symbol" aria-roledescription="rule mark" transform="translate(43.218989723548994,0)" x2="0" y2="600" stroke="black" stroke-dasharray="3,3"/><line aria-label="a: 7.56332320162" role="graphics-symbol" aria-roledescription="rule mark" transform="translate(43.218989723548994,0)" x2="0" y2="600" stroke="black" stroke-dasharray="3,3"/><line aria-label="a: 7.56332320162" role="graphics-symbol" aria-roledescription="rule mark" transform="translate(43.218989723548994,0)" x2="0" y2="600" stroke="black" stroke-dasharray="3,3"/><line aria-label="a: 7.56332320162" role="graphics-symbol" aria-roledescription="rule mark" transform="translate(43.218989723548994,0)" x2="0" y2="600" stroke="black" stroke-dasharray="3,3"/><line aria-label="a: 7.56332320162" role="graphics-symbol" aria-roledescription="rule mark" transform="translate(43.218989723548994,0)" x2="0" y2="600" stroke="black" stroke-dasharray="3,3"/><line aria-label="a: 7.56332320162" role="graphics-symbol" aria-roledescription="rule mark" transform="translate(43.218989723548994,0)" x2="0" y2="600" stroke="black" stroke-dasharray="3,3"/><line aria-label="a: 7.56332320162" role="graphics-symbol" aria-roledescription="rule mark" transform="translate(43.218989723548994,0)" x2="0" y2="600" stroke="black" stroke-dasharray="3,3"/><line aria-label="a: 7.56332320162" role="graphics-symbol" aria-roledescription="rule mark" transform="translate(43.218989723548994,0)" x2="0" y2="600" stroke="black" stroke-dasharray="3,3"/></g><g class="mark-group role-legend" role="graphics-symbol" aria-roledescription="legend" aria-label="Symbol legend titled 'Product Type' for fill color with 2 values: Animal Products, Plants"><g transform="translate(818,0)"><path class="background" aria-hidden="true" d="M0,0h89v40h-89Z" pointer-events="none"/><g><g class="mark-group role-legend-entry"><g transform="translate(0,16)"><path class="background" aria-hidden="true" d="M0,0h0v0h0Z" pointer-events="none"/><g><g class="mark-group role-scope" role="graphics-object" aria-roledescription="group mark container"><g transform="translate(0,0)"><path class="background" aria-hidden="true" d="M0,0h88.8076171875v11h-88.8076171875Z" pointer-events="none" opacity="1"/><g><g class="mark-symbol role-legend-symbol" pointer-events="none"><path transform="translate(6,6)" d="M-5,-5h10v10h-10Z" fill="red" stroke-width="1.5" opacity="1"/></g><g class="mark-text role-legend-label" pointer-events="none"><text text-anchor="start" transform="translate(16,9)" font-family="sans-serif" font-size="10px" fill="#000" opacity="1">Animal Products</text></g></g><path class="foreground" aria-hidden="true" d="" pointer-events="none" display="none"/></g><g transform="translate(0,13)"><path class="background" aria-hidden="true" d="M0,0h88.8076171875v11h-88.8076171875Z" pointer-events="none" opacity="1"/><g><g class="mark-symbol role-legend-symbol" pointer-events="none"><path transform="translate(6,6)" d="M-5,-5h10v10h-10Z" fill="green" stroke-width="1.5" opacity="1"/></g><g class="mark-text role-legend-label" pointer-events="none"><text text-anchor="start" transform="translate(16,9)" font-family="sans-serif" font-size="10px" fill="#000" opacity="1">Plants</text></g></g><path class="foreground" aria-hidden="true" d="" pointer-events="none" display="none"/></g></g></g><path class="foreground" aria-hidden="true" d="" pointer-events="none" display="none"/></g></g><g class="mark-text role-legend-title" pointer-events="none"><text text-anchor="start" transform="translate(0,9)" font-family="sans-serif" font-size="11px" font-weight="bold" fill="#000" opacity="1">Product Type</text></g></g><path class="foreground" aria-hidden="true" d="" pointer-events="none" display="none"/></g></g></g><path class="foreground" aria-hidden="true" d="" display="none"/></g></g></g></svg>